<svg xmlns="http://www.w3.org/2000/svg" width="36" height="36" viewBox="0 0 36 36" fill="none">
  <path d="M18 3.375C9.93616 3.375 3.375 9.93616 3.375 18C3.375 26.0638 9.93616 32.625 18 32.625C26.0638 32.625 32.625 26.0638 32.625 18C32.625 9.93616 26.0638 3.375 18 3.375ZM18 5.625C24.8479 5.625 30.375 11.1522 30.375 18C30.375 24.8479 24.8479 30.375 18 30.375C11.1521 30.375 5.625 24.8479 5.625 18C5.625 11.1522 11.1521 5.625 18 5.625ZM23.4536 11.1907C20.7073 11.1534 17.8442 11.9181 15.3171 13.0583C12.4291 14.3615 9.97815 16.1199 8.67261 18.0835C8.53878 18.2848 8.47335 18.5239 8.48602 18.7653C8.49868 19.0067 8.58876 19.2376 8.74292 19.4238C9.58382 20.4374 10.7692 20.9996 12.0498 21.1794C13.0773 21.3238 14.265 21.1665 15.4929 20.9993C16.081 22.3363 16.9408 23.4813 17.9714 24.2688C19.2256 25.2271 20.5816 25.8041 21.8892 25.7739C22.1515 25.7675 22.4033 25.6696 22.6011 25.4971C23.37 24.8261 23.8643 23.8835 24.3083 22.7769C24.7524 21.6702 25.1096 20.3922 25.374 19.0876C25.9029 16.4785 26.1357 13.8699 25.5872 12.0498C25.5227 11.8371 25.3967 11.6482 25.225 11.5071C25.0533 11.3659 24.8437 11.2787 24.6226 11.2566C24.2363 11.2173 23.846 11.196 23.4536 11.1907ZM23.4866 13.5549C23.6157 14.7611 23.5671 16.6726 23.168 18.6416C22.9256 19.8373 22.594 21.0023 22.2188 21.9375C21.9364 22.6411 21.653 23.0044 21.3948 23.3416C20.838 23.2475 20.1068 23.0676 19.3381 22.4802C18.5678 21.8916 17.9415 21.0521 17.5276 20.1138L19.6128 18.1912C19.7234 18.0916 19.8132 17.971 19.8768 17.8365C19.9405 17.7019 19.9769 17.5561 19.9838 17.4074C19.9907 17.2587 19.9681 17.1101 19.9172 16.9703C19.8663 16.8304 19.7881 16.702 19.6872 16.5926C19.5864 16.4831 19.4648 16.3948 19.3295 16.3326C19.1943 16.2705 19.048 16.2358 18.8993 16.2306C18.7505 16.2254 18.6022 16.2498 18.4629 16.3023C18.3236 16.3548 18.1962 16.4345 18.0879 16.5366L15.6819 18.7537C14.3367 18.9605 13.1747 19.0656 12.3618 18.9514C11.9197 18.8893 11.7213 18.6222 11.4192 18.468C12.5222 17.3033 14.1521 16.0524 16.2444 15.1084C18.559 14.064 21.1582 13.5116 23.4866 13.5549Z" fill="#55BDC9"/>
</svg>