<svg xmlns="http://www.w3.org/2000/svg" width="36" height="36" viewBox="0 0 36 36" fill="none">
  <path d="M9 4.5C6.53255 4.5 4.5 6.53255 4.5 9V27C4.5 29.4675 6.53255 31.5 9 31.5H27C29.4675 31.5 31.5 29.4675 31.5 27V9C31.5 6.53255 29.4675 4.5 27 4.5H9ZM9 7.5H27C27.8475 7.5 28.5 8.15245 28.5 9V27C28.5 27.8475 27.8475 28.5 27 28.5H9C8.15245 28.5 7.5 27.8475 7.5 27V9C7.5 8.15245 8.15245 7.5 9 7.5ZM10.0518 10.5L15.9639 18.9492L10.3594 25.5H12.3574L16.8604 20.2266L20.5459 25.5H26.3057L20.0273 16.5146L25.1602 10.5H23.1943L19.1396 15.2402L15.8291 10.5H10.0518ZM12.8496 11.9824H15.0791L23.5254 24.0176H21.2812L12.8496 11.9824Z" fill="#55BDC9"/>
</svg>