<svg xmlns="http://www.w3.org/2000/svg" width="36" height="36" viewBox="0 0 36 36" fill="none">
  <path d="M18 6.75C13.7637 6.75 10.0195 7.18945 7.73438 7.52344C5.84473 7.80029 4.31982 9.22412 3.97266 11.1094C3.67822 12.7134 3.375 15.0601 3.375 18C3.375 20.9399 3.67822 23.2866 3.97266 24.8906C4.31982 26.7759 5.84473 28.2041 7.73438 28.4766C10.0283 28.8105 13.7856 29.25 18 29.25C22.2144 29.25 25.9717 28.8105 28.2656 28.4766C30.1553 28.2041 31.6802 26.7759 32.0273 24.8906C32.3218 23.2822 32.625 20.9312 32.625 18C32.625 15.0688 32.3262 12.7178 32.0273 11.1094C31.6802 9.22412 30.1553 7.80029 28.2656 7.52344C25.9805 7.18945 22.2363 6.75 18 6.75ZM18 9C22.0869 9 25.7388 9.41748 27.9492 9.73828C28.8984 9.87891 29.6411 10.5952 29.8125 11.5312C30.085 13.0166 30.375 15.2183 30.375 18C30.375 20.7773 30.085 22.9834 29.8125 24.4688C29.6411 25.4048 28.9028 26.1255 27.9492 26.2617C25.73 26.5825 22.0605 27 18 27C13.9395 27 10.2656 26.5825 8.05078 26.2617C7.10156 26.1255 6.35889 25.4048 6.1875 24.4688C5.91504 22.9834 5.625 20.7861 5.625 18C5.625 15.2095 5.91504 13.0166 6.1875 11.5312C6.35889 10.5952 7.09717 9.87891 8.05078 9.73828C10.2568 9.41748 13.9131 9 18 9ZM14.625 11.5664V24.4336L16.3125 23.4844L24.1875 18.9844L25.875 18L24.1875 17.0156L16.3125 12.5156L14.625 11.5664ZM16.875 15.4336L21.3398 18L16.875 20.5664V15.4336Z" fill="#55BDC9"/>
</svg>