<svg viewBox="0 0 16 16" fill="none" xmlns="http://www.w3.org/2000/svg">
<mask id="mask0_202_17167" style="mask-type:luminance" maskUnits="userSpaceOnUse" x="0" y="0" >
<path d="M0 0H6.63361V15.8804H0V0Z" fill="white"/>
</mask>
<g mask="url(#mask0_202_17167)">
<path d="M1.63961 6.51964V11.5082C1.64025 11.6284 1.66854 11.7422 1.72447 11.8483C1.77975 11.955 1.85754 12.0424 1.95654 12.1112L4.58002 13.9266C4.58002 13.9266 4.5691 15.3576 4.58002 15.8777C4.50224 15.8513 4.42895 15.8147 4.36145 15.7671L1.63961 13.8855L0.317261 12.9707C0.218261 12.9019 0.141119 12.8145 0.0851904 12.7078C0.0292621 12.6017 0.000976562 12.4885 0.000976562 12.3677V5.84079C0.000976562 5.70514 0.0273336 5.57529 0.0794047 5.45057C0.131476 5.32586 0.206047 5.21658 0.302475 5.12143L5.24988 0.171458C5.38874 0.0441732 5.55202 -0.0130409 5.74038 -0.000183804C6.27844 0.0731016 6.55037 0.458814 6.55037 0.845169C6.55101 0.954454 6.5298 1.0586 6.48866 1.15888C6.44687 1.25981 6.38773 1.34788 6.31059 1.42502L1.93597 5.8035C1.84147 5.898 1.76818 6.00793 1.71675 6.132C1.66533 6.25607 1.63961 6.38528 1.63961 6.51964Z" fill="white"/>
</g>
<mask id="mask1_202_17167" style="mask-type:luminance" maskUnits="userSpaceOnUse" x="4" y="3" >
<path d="M4.82324 3.20801H15.6849V15.9995H4.82324V3.20801Z" fill="white"/>
</mask>
<g mask="url(#mask1_202_17167)">
<path d="M15.6309 7.68256V12.1009C15.6309 12.1748 15.6168 12.2462 15.5885 12.315C15.5602 12.3837 15.5197 12.4442 15.467 12.4962C15.4149 12.549 15.3545 12.5895 15.2857 12.6177C15.2169 12.646 15.1456 12.6602 15.0717 12.6602H14.5503C14.4764 12.6602 14.405 12.646 14.3369 12.6177C14.2681 12.5895 14.2077 12.549 14.1556 12.4962C14.1029 12.4442 14.0624 12.3831 14.0341 12.315C14.0058 12.2462 13.9923 12.1748 13.9923 12.1009V8.36398C13.9923 8.23477 13.9621 8.11263 13.9017 7.99756C13.8419 7.88313 13.7583 7.78927 13.6516 7.71534L10.4746 5.52321C10.4463 5.50393 10.4155 5.48978 10.382 5.48078C10.3492 5.47178 10.3158 5.46921 10.2811 5.47243C10.247 5.47564 10.2149 5.48464 10.1834 5.49878C10.1525 5.51357 10.1249 5.53286 10.1011 5.55728L6.93055 8.72334C6.79941 8.85448 6.69848 9.00491 6.62777 9.17591C6.55705 9.34691 6.5217 9.52498 6.5217 9.70948V15.5594C6.5217 15.6353 6.50691 15.7086 6.47798 15.7787C6.44905 15.8487 6.40791 15.9104 6.35391 15.9644C6.30055 16.0178 6.2382 16.0589 6.16813 16.0885C6.09806 16.1174 6.02541 16.1316 5.94956 16.1316H5.18713C5.08363 16.1316 4.98335 16.1136 4.88563 16.0789C4.87599 15.5582 4.88563 14.1272 4.88563 14.1272V8.85191C4.88563 8.68412 4.91842 8.52213 4.98399 8.3672C5.04892 8.21227 5.14213 8.07599 5.26235 7.95834L9.86968 3.46029C9.89989 3.43137 9.93332 3.40822 9.97125 3.39022C10.0092 3.37287 10.049 3.36258 10.0908 3.35937C10.1326 3.35551 10.1737 3.35937 10.2136 3.3703C10.2541 3.38122 10.2914 3.39858 10.3255 3.42237L11.3302 4.12501L13.9884 5.96421L15.1411 6.76135C15.2934 6.86549 15.4124 6.99856 15.4992 7.16185C15.5859 7.32449 15.6297 7.49806 15.6309 7.68256Z" fill="#2ADB80"/>
</g>
</svg>
