<svg viewBox="0 0 39 40" fill="none" xmlns="http://www.w3.org/2000/svg">
<mask id="mask0_6621_8867" style="mask-type:luminance" maskUnits="userSpaceOnUse" x="0" y="0">
<path d="M0 0H16.4942V39.701H0V0Z" fill="white"/>
</mask>
<g mask="url(#mask0_6621_8867)">
<path d="M4.07769 16.2994V28.7707C4.07928 29.0713 4.14961 29.3557 4.28868 29.6209C4.42614 29.8877 4.61955 30.1062 4.86571 30.2782L11.3889 34.8168C11.3889 34.8168 11.3617 38.3942 11.3889 39.6944C11.1955 39.6285 11.0133 39.5369 10.8454 39.418L4.07769 34.7139L0.789722 32.427C0.543564 32.255 0.351753 32.0364 0.21269 31.7696C0.0736266 31.5045 0.0032959 31.2216 0.0032959 30.9195V14.6022C0.0032959 14.2631 0.0688315 13.9385 0.198304 13.6267C0.327777 13.3149 0.513194 13.0417 0.752958 12.8038L13.0545 0.428897C13.3997 0.110685 13.8057 -0.0323504 14.274 -0.00020774C15.6119 0.183006 16.2881 1.14729 16.2881 2.11317C16.2897 2.38639 16.2369 2.64674 16.1346 2.89746C16.0307 3.14978 15.8837 3.36995 15.6919 3.56281L4.81456 14.509C4.57959 14.7453 4.39737 15.0201 4.2695 15.3303C4.14162 15.6404 4.07769 15.9635 4.07769 16.2994Z" fill="#03224A"/>
</g>
<mask id="mask1_6621_8867" style="mask-type:luminance" maskUnits="userSpaceOnUse" x="11" y="8">
<path d="M11.993 8.0213H39.0001V40.0001H11.993V8.0213Z" fill="white"/>
</mask>
<g mask="url(#mask1_6621_8867)">
<path d="M38.8658 19.2069V30.2528C38.8658 30.4376 38.8306 30.616 38.7603 30.788C38.69 30.9599 38.5893 31.111 38.4582 31.2412C38.3287 31.373 38.1785 31.4742 38.0075 31.5449C37.8364 31.6156 37.659 31.651 37.4752 31.651H36.1789C35.995 31.651 35.8176 31.6156 35.6482 31.5449C35.4771 31.4742 35.3269 31.373 35.1974 31.2412C35.0663 31.111 34.9656 30.9583 34.8953 30.788C34.825 30.616 34.7914 30.4376 34.7914 30.2528V20.9105C34.7914 20.5875 34.7163 20.2821 34.566 19.9944C34.4174 19.7084 34.2096 19.4737 33.9443 19.2889L26.0448 13.8086C25.9745 13.7604 25.8978 13.725 25.8147 13.7025C25.7331 13.68 25.65 13.6736 25.5637 13.6816C25.479 13.6897 25.3991 13.7121 25.3207 13.7475C25.244 13.7845 25.1753 13.8327 25.1161 13.8938L17.2327 21.8089C16.9066 22.1367 16.6557 22.5128 16.4798 22.9403C16.304 23.3678 16.2161 23.813 16.2161 24.2742V38.8992C16.2161 39.0888 16.1793 39.272 16.1074 39.4472C16.0355 39.6224 15.9332 39.7767 15.7989 39.9117C15.6662 40.0451 15.5112 40.1479 15.337 40.2218C15.1627 40.2942 14.9821 40.3295 14.7935 40.3295H12.8978C12.6404 40.3295 12.3911 40.2845 12.1481 40.1977C12.1241 38.896 12.1481 35.3185 12.1481 35.3185V22.1303C12.1481 21.7109 12.2296 21.3059 12.3927 20.9185C12.5541 20.5312 12.7859 20.1905 13.0848 19.8964L24.5407 8.65128C24.6158 8.57896 24.699 8.5211 24.7933 8.4761C24.8876 8.43271 24.9867 8.407 25.0906 8.39896C25.1945 8.38932 25.2968 8.39896 25.3959 8.42628C25.4966 8.45361 25.5893 8.497 25.674 8.55646L28.1723 10.3131L34.7818 14.9111L37.6478 16.9039C38.0266 17.1643 38.3223 17.497 38.5381 17.9052C38.7539 18.3118 38.8626 18.7457 38.8658 19.2069Z" fill="#2ADB80"/>
</g>
</svg>
